<?xml version="1.0" encoding="UTF-8"?>
<svg version="1.1" xmlns="http://www.w3.org/2000/svg" width="1024" height="1024">
<path d="M0 0 C337.92 0 675.84 0 1024 0 C1024 337.92 1024 675.84 1024 1024 C686.08 1024 348.16 1024 0 1024 C0 686.08 0 348.16 0 0 Z " fill="#FCFDFC00" transform="translate(0,0)"/>
<path d="M0 0 C1.41153854 -0.00430527 1.41153854 -0.00430527 2.85159302 -0.00869751 C4.83661503 -0.01072834 6.82165751 -0.00526757 8.80664062 0.00732422 C11.77782486 0.02321033 14.74761087 0.00753589 17.71875 -0.01171875 C34.02511807 -0.03125761 49.78347289 1.55123937 65.3828125 6.5234375 C66.33526855 6.8212915 67.28772461 7.11914551 68.26904297 7.42602539 C92.46793632 15.25366344 113.47282019 27.87992367 131.9453125 45.3984375 C133.28916016 46.66300781 133.28916016 46.66300781 134.66015625 47.953125 C152.67598772 65.38780062 165.91580822 87.43162226 173.2578125 111.3984375 C173.48815186 112.14375732 173.71849121 112.88907715 173.95581055 113.65698242 C177.85865645 127.17300327 179.45052422 140.53277039 179.33642578 154.55517578 C179.32031515 156.89805251 179.33640549 159.23920536 179.35546875 161.58203125 C179.37030349 172.14374757 178.14552946 182.0767514 175.9453125 192.3984375 C175.65527344 193.76476318 175.65527344 193.76476318 175.359375 195.15869141 C172.96014255 205.66435306 169.16859988 215.09277296 163.98046875 224.51660156 C162.97811519 226.33880469 162.00707002 228.1750049 161.0390625 230.015625 C142.02872107 264.99776967 109.44120117 288.3073276 72.9453125 302.3984375 C71.85605469 302.81996094 70.76679687 303.24148438 69.64453125 303.67578125 C61.60866039 306.55738582 53.33708641 308.00643709 44.9453125 309.3984375 C43.74777344 309.60597656 42.55023437 309.81351563 41.31640625 310.02734375 C35.41041288 311.00597301 29.91960544 311.43098974 23.9453125 311.3984375 C23.94498645 310.563931 23.94498645 310.563931 23.94465381 309.71256578 C23.93114 276.74453867 23.89166895 243.77665701 23.81845688 210.80871012 C23.80969005 206.85082668 23.80114026 202.8929428 23.79272461 198.93505859 C23.79104555 198.14711016 23.78936648 197.35916172 23.78763654 196.54733606 C23.76096166 183.78645959 23.75187111 171.02562805 23.74927107 158.26472656 C23.74621237 145.17231105 23.72427537 132.08002547 23.68478793 118.98766863 C23.66101473 110.90794934 23.65199331 102.82848938 23.66179939 94.74873991 C23.66774009 88.55470928 23.64742401 82.36101877 23.61725235 76.16706467 C23.60899491 73.62498285 23.60929736 71.0828569 23.61871529 68.54077911 C23.63028908 65.0741321 23.61128976 61.60895776 23.58454895 58.14242554 C23.59522221 57.13269224 23.60589547 56.12295893 23.61689216 55.08262765 C23.55226113 50.60242225 23.43280322 47.38793469 20.59286022 43.78943825 C16.79307296 40.3578498 13.91727377 40.15765066 8.875 40.25 C6.38357836 40.44164782 4.92893952 40.85561649 2.9453125 42.3984375 C0.38007517 46.02746841 -0.43204174 48.51076531 -0.45341492 52.93501282 C-0.47222214 54.58608284 -0.47222214 54.58608284 -0.4914093 56.27050781 C-0.48925667 58.06693726 -0.48925667 58.06693726 -0.48706055 59.8996582 C-0.4972522 61.16835251 -0.50744385 62.43704681 -0.51794434 63.7441864 C-0.54549037 67.2148769 -0.55479551 70.68540356 -0.56079841 74.1561892 C-0.57018839 77.78641755 -0.59639225 81.41652382 -0.62080383 85.04667664 C-0.66445545 91.91718354 -0.69301057 98.78766673 -0.71612722 105.65827006 C-0.74824736 114.94511985 -0.80371775 124.23182836 -0.85787296 133.5185709 C-0.94255221 148.14515108 -0.99605915 162.77167598 -1.0546875 177.3984375 C-37.6846875 177.3984375 -74.3146875 177.3984375 -112.0546875 177.3984375 C-111.03137626 173.30519254 -109.4079889 169.92669067 -107.4921875 166.2109375 C-104.61168879 160.54915582 -101.84389554 154.85241672 -99.1796875 149.0859375 C-96.0113001 142.26856022 -92.58569732 135.6179423 -89.05175781 128.98388672 C-84.10115826 119.66345271 -79.42010841 110.20980509 -74.72644043 100.75814819 C-73.26401481 97.8191212 -71.7967185 94.88258678 -70.32702446 91.94718933 C-66.99282924 85.2872644 -63.67283242 78.62052741 -60.36954117 71.94522381 C-57.6496369 66.44884861 -54.92211647 60.95628349 -52.19166374 55.4651413 C-50.37013783 51.80109829 -48.55170796 48.13558015 -46.73974609 44.46679688 C-44.96102369 40.86566788 -43.17434786 37.26858631 -41.382267 33.67408752 C-40.7089173 32.32007067 -40.03835633 30.96466281 -39.37081528 29.60777283 C-30.39097335 11.36575973 -30.39097335 11.36575973 -23.2421875 6.0859375 C-22.65824219 5.63605469 -22.07429688 5.18617188 -21.47265625 4.72265625 C-14.5312028 0.92111712 -7.81947213 -0.05406715 0 0 Z " fill="#FBFCFB00" transform="translate(501.0546875,376.6015625)"/>
<path d="M0 0 C1.58300148 -0.00287018 1.58300148 -0.00287018 3.19798279 -0.00579834 C5.42080932 -0.00715181 7.64364399 -0.00351429 9.86645508 0.00488281 C13.21259014 0.01551851 16.55817909 0.00499749 19.90429688 -0.0078125 C69.47778959 -0.04327164 115.99097601 15.6606749 153.68359375 48.265625 C154.21597656 48.71824707 154.74835938 49.17086914 155.296875 49.63720703 C162.27509283 55.58537139 168.08061706 62.02560468 173.68359375 69.265625 C174.49699219 70.27496094 175.31039063 71.28429687 176.1484375 72.32421875 C192.14694591 92.31694414 203.09139077 115.58423705 209.68359375 140.265625 C209.90805176 141.06822754 210.13250977 141.87083008 210.36376953 142.69775391 C221.73325233 185.02573628 212.42880444 232.53572754 191.68359375 270.265625 C191.04141284 271.47382345 190.39948567 272.68215681 189.7578125 273.890625 C185.17670591 282.35950022 179.77266931 289.85103639 173.68359375 297.265625 C173.21937012 297.83812988 172.75514648 298.41063477 172.27685547 299.00048828 C142.43716357 335.63525743 98.16922988 358.98696732 51.68359375 366.265625 C50.48992187 366.45511719 49.29625 366.64460938 48.06640625 366.83984375 C42.26710019 367.52131248 36.42537853 367.56347757 30.59228516 367.61572266 C29.23273709 367.63237018 27.87327961 367.65977517 26.51416016 367.69775391 C13.74700017 368.05094693 13.74700017 368.05094693 9.8984375 365.0546875 C7.82735716 362.44666041 6.47887979 360.38889843 5.37109375 357.265625 C5.06558594 356.440625 4.76007813 355.615625 4.4453125 354.765625 C3.1640957 350.56060577 2.55857775 346.65539162 2.56333923 342.26054382 C2.56127299 340.78921635 2.56127299 340.78921635 2.559165 339.28816509 C2.56276311 338.21942559 2.56636122 337.15068609 2.57006836 336.04956055 C2.56994782 334.89914433 2.56982729 333.74872812 2.5697031 332.56345081 C2.57044893 328.84306206 2.57806219 325.12272353 2.5859375 321.40234375 C2.58740794 319.10404484 2.58842802 316.8057456 2.58898926 314.50744629 C2.5942303 305.98933408 2.60819151 297.47122905 2.62109375 288.953125 C2.64171875 269.91625 2.66234375 250.879375 2.68359375 231.265625 C-58.20140625 231.760625 -58.20140625 231.760625 -120.31640625 232.265625 C-128.17453125 247.96125 -136.03265625 263.656875 -144.12890625 279.828125 C-146.58690674 284.73502197 -149.04490723 289.64191895 -151.57739258 294.69750977 C-153.83012561 299.199626 -153.83012561 299.199626 -156.08232117 303.70201111 C-157.06525734 305.66637438 -158.04897374 307.63034738 -159.03337097 309.59397888 C-165.03717171 321.5717358 -170.95884485 333.57985587 -176.67061329 345.70018101 C-184.37759092 361.97987974 -184.37759092 361.97987974 -190.12890625 366.453125 C-195.10626701 367.72186402 -200.4992738 368.77232903 -205.22265625 366.24609375 C-208.34581808 363.71235217 -210.93449481 360.99386272 -211.81713867 356.99969482 C-212.46881587 346.23536699 -207.43590629 337.98492842 -202.62890625 328.71875 C-201.72672837 326.93683879 -200.82670167 325.15383699 -199.92871094 323.36981201 C-197.56581575 318.68962254 -195.17451676 314.02454106 -192.77667236 309.36218262 C-190.36528908 304.66157264 -187.98048779 299.94753249 -185.59375 295.234375 C-182.48036213 289.09175286 -179.35881262 282.95349594 -176.21980286 276.82392502 C-169.50492278 263.71075653 -162.9168859 250.55463662 -156.56274414 237.26220703 C-151.14143314 225.9252673 -145.57714678 214.66577452 -139.93887138 203.43539047 C-138.31561087 200.2020152 -136.69512131 196.96726295 -135.07521057 193.73220825 C-131.63707991 186.86719121 -128.19575647 180.00377779 -124.75390625 173.140625 C-120.75187548 165.16042853 -116.75127321 157.17952203 -112.754076 149.19690323 C-111.18128362 146.05765305 -109.60603212 142.91964604 -108.03062439 139.78170776 C-102.66429312 129.07623391 -97.40054344 118.32925942 -92.25374794 107.51647472 C-85.70136496 93.75367579 -78.90819873 80.11019241 -72.11791992 66.46362305 C-70.446697 63.10319558 -68.78241647 59.73945956 -67.1237793 56.37280273 C-65.08589899 52.23655491 -63.03607582 48.10643177 -60.9778347 43.98027992 C-60.20713031 42.43040183 -59.44047998 40.87849988 -58.67827797 39.32442284 C-50.09493063 21.84080083 -40.29107652 9.09819858 -21.31640625 2.265625 C-14.18805526 0.421954 -7.33731547 -0.03004294 0 0 Z M-18.62890625 34.140625 C-19.24378906 34.61242187 -19.85867188 35.08421875 -20.4921875 35.5703125 C-25.62764711 40.34288096 -28.52461796 46.14323661 -31.67578125 52.30078125 C-32.19460876 53.30520767 -32.71343628 54.30963409 -33.24798584 55.34449768 C-39.48795316 67.46727553 -45.57452396 79.66787074 -51.65380859 91.87176514 C-53.18308255 94.94064322 -54.71468208 98.00836015 -56.24609375 101.07617188 C-58.58051813 105.75319979 -60.91378745 110.43080216 -63.24609375 115.10888672 C-66.93006278 122.49753866 -70.62217229 129.88210178 -74.31640625 137.265625 C-75.28521896 139.20309365 -76.25397394 141.14059115 -77.22265625 143.078125 C-80.65364583 149.94010417 -84.08463542 156.80208333 -87.515625 163.6640625 C-87.84965332 164.33219971 -88.18368164 165.00033691 -88.52783203 165.6887207 C-89.1730789 166.97905305 -89.81858228 168.26925716 -90.46435547 169.55932617 C-92.10742352 172.84250559 -93.74506759 176.12824609 -95.375 179.41796875 C-96.0634975 180.80483875 -96.75229631 182.19155921 -97.44140625 183.578125 C-97.77100342 184.24207275 -98.10060059 184.90602051 -98.44018555 185.59008789 C-100.90530637 190.5234071 -103.53278789 195.34886227 -106.28515625 200.12890625 C-107.53373474 202.32049628 -107.53373474 202.32049628 -107.31640625 205.265625 C-70.68640625 205.265625 -34.05640625 205.265625 3.68359375 205.265625 C3.72097656 195.93925781 3.75835937 186.61289062 3.796875 177.00390625 C3.82714408 171.10219857 3.85816273 165.20051067 3.89257812 159.29882812 C3.94708662 149.92750832 3.99849844 140.5562435 4.0300293 131.18481445 C4.05300628 124.35990744 4.08640083 117.53514445 4.13229531 110.71035165 C4.15623174 107.09679445 4.17495769 103.48337992 4.18120766 99.86974525 C4.18838076 95.83523866 4.21881178 91.80122851 4.2512207 87.7668457 C4.24906807 85.97041626 4.24906807 85.97041626 4.24687195 84.13769531 C4.26567917 82.48662529 4.26567917 82.48662529 4.28486633 80.80220032 C4.2894753 79.84814458 4.29408426 78.89408884 4.29883289 77.91112232 C4.84792526 74.13573205 6.34282725 71.30844339 9.37109375 68.953125 C14.03378775 67.56691868 18.10638104 67.56464157 22.49609375 69.515625 C25.34516259 71.79488007 27.42414542 73.76676236 28.06260127 77.45519471 C28.06449987 78.25564517 28.06639847 79.05609562 28.06835461 79.88080215 C28.07781115 80.80838278 28.08726769 81.73596341 28.09701079 82.69165254 C28.09216322 83.70721152 28.08731564 84.7227705 28.08232117 85.769104 C28.08896799 86.85057953 28.09561482 87.93205505 28.10246307 89.04630256 C28.12116549 92.68233031 28.11848285 96.31803109 28.1159668 99.95410156 C28.12497951 102.55564847 28.1353055 105.15719112 28.14685059 107.75872803 C28.16965549 113.36591456 28.18152494 118.97303889 28.18597984 124.58026886 C28.19243667 132.68737721 28.21536577 140.79437302 28.24232314 148.90143606 C28.28561127 162.05439207 28.31556644 175.20734336 28.3371582 188.36035156 C28.35816183 201.13771898 28.38543153 213.91504767 28.42114258 226.69238281 C28.4233414 227.47989875 28.42554023 228.26741469 28.42780568 229.07879475 C28.43887518 233.02950732 28.45006802 236.98021952 28.46132219 240.93093157 C28.55453597 273.70913049 28.62612063 306.48734363 28.68359375 339.265625 C29.95190536 339.26999573 31.22021698 339.27436646 32.52696228 339.27886963 C33.24038756 339.28132816 33.95381285 339.2837867 34.68885708 339.28631973 C36.9313996 339.2630541 39.09282333 339.06757076 41.3125 338.75 C42.11163818 338.63567627 42.91077637 338.52135254 43.73413086 338.40356445 C78.39417078 333.05077959 109.86931448 319.30637004 135.5703125 295.203125 C137.68359375 293.265625 137.68359375 293.265625 140.25390625 291.23046875 C143.89037519 288.28972297 146.712812 284.86305602 149.68359375 281.265625 C150.79734375 279.94304687 150.79734375 279.94304687 151.93359375 278.59375 C164.41560412 263.15126281 173.86149507 245.44690689 179.37109375 226.390625 C179.67551392 225.34805542 179.67551392 225.34805542 179.98608398 224.28442383 C183.31556236 212.11158374 184.03404589 199.87987041 183.99926758 187.33520508 C183.99611069 184.96583813 184.01966269 182.59772936 184.04492188 180.22851562 C184.10332677 166.2963761 182.19693485 152.87417947 178.12109375 139.515625 C177.87133789 138.69618408 177.62158203 137.87674316 177.36425781 137.0324707 C170.49330443 115.58818455 158.82095449 96.79029017 143.68359375 80.265625 C142.91088135 79.41701904 142.91088135 79.41701904 142.12255859 78.55126953 C115.53931112 49.73332511 76.18919779 30.56793907 36.90365601 28.09030151 C31.1084729 27.86078498 25.31754664 27.83693101 19.51855469 27.87451172 C16.52624274 27.89080111 13.53524378 27.87445033 10.54296875 27.85546875 C8.60806999 27.8574483 6.67317203 27.86128598 4.73828125 27.8671875 C3.86001678 27.86111481 2.98175232 27.85504211 2.07687378 27.8487854 C-5.41391483 27.93322234 -12.6319718 29.38930648 -18.62890625 34.140625 Z " fill="#ffffff" transform="translate(496.31640625,348.734375)"/>
<path d="M0 0 C6.3232739 4.26790763 10.33612767 10.63338301 12.73046875 17.81640625 C13.54138145 28.03922376 12.7375817 36.75073807 6.48046875 45.12890625 C-0.23623108 51.69295381 -7.31861547 54.68331594 -16.64453125 55.19140625 C-24.85300711 54.95122709 -31.67312294 51.2891001 -37.578125 45.75390625 C-44.68821821 37.6093191 -44.84053679 28.11605336 -44.26953125 17.81640625 C-43.13552754 11.19965066 -39.1882644 6.23476923 -34.26953125 1.81640625 C-23.41380482 -5.57940063 -11.7776405 -6.14221183 0 0 Z " fill="#ffffff" transform="translate(528.26953125,760.18359375)"/>
<path d="M0 0 C3.2138627 1.60693135 5.16978419 2.94336169 7.375 5.75 C8.36464212 9.31271162 8.85544434 12.40172701 8 16 C6.70454407 17.86964417 6.70454407 17.86964417 4.98168945 19.74047852 C4.34445953 20.43577667 3.70722961 21.13107483 3.0506897 21.84744263 C-0.3449698 25.41178096 -3.78362879 28.92619858 -7.26953125 32.40234375 C-8.03174484 33.16551407 -8.79395844 33.92868439 -9.57926941 34.71498108 C-11.17556068 36.31194789 -12.77309553 37.90767253 -14.37182617 39.50219727 C-16.82652823 41.95149736 -19.27578896 44.40614904 -21.72460938 46.86132812 C-23.28092907 48.4169878 -24.83755852 49.97233766 -26.39453125 51.52734375 C-27.12783157 52.2626683 -27.8611319 52.99799286 -28.61665344 53.75559998 C-29.29463486 54.43042923 -29.97261627 55.10525848 -30.67114258 55.80053711 C-31.26735916 56.3959581 -31.86357574 56.99137909 -32.4778595 57.60484314 C-35.38367409 60.26824193 -38.01985951 60.34076001 -41.90234375 60.27734375 C-45.40903514 59.81370299 -47.38925777 58.30716755 -50 56 C-52.06048121 52.90927819 -52.91739201 50.35796795 -53.75 46.75 C-51.66380283 36.31901415 -37.14057295 25.98863539 -29.7590332 18.62866211 C-27.53934286 16.41439949 -25.32513401 14.19475365 -23.11132812 11.97460938 C-21.70084193 10.56478284 -20.29004619 9.15526593 -18.87890625 7.74609375 C-17.88679893 6.75095009 -17.88679893 6.75095009 -16.87464905 5.73570251 C-16.26318527 5.1273909 -15.6517215 4.51907928 -15.02172852 3.89233398 C-14.48483902 3.35624008 -13.94794952 2.82014618 -13.39479065 2.26780701 C-9.66667973 -1.12089161 -4.73864274 -0.53055356 0 0 Z " fill="#ffffff" transform="translate(618,261)"/>
<path d="M0 0 C1.87733459 1.35197449 1.87733459 1.35197449 3.75415039 3.06323242 C4.44936798 3.69587006 5.14458557 4.32850769 5.86087036 4.98031616 C9.35819982 8.28235998 12.78749842 11.64485514 16.18359375 15.05078125 C16.92456802 15.7907988 17.6655423 16.53081635 18.42897034 17.29325867 C19.97885859 18.8424716 21.52750558 20.39292727 23.07495117 21.94458008 C25.45182249 24.32685505 27.83404646 26.70368497 30.21679688 29.08007812 C31.72688365 30.5908249 33.23666062 32.10188141 34.74609375 33.61328125 C35.45954453 34.32470779 36.1729953 35.03613434 36.9080658 35.76911926 C37.89027855 36.75606026 37.89027855 36.75606026 38.89233398 37.76293945 C39.46999008 38.34139114 40.04764618 38.91984283 40.64280701 39.51582336 C43.28165253 42.40156835 43.33707901 45.05712054 43.28125 48.90234375 C42.68451883 53.35296375 40.08247715 56.0979357 36.75 58.875 C33.03369752 60.39530556 29.88704048 61.00680311 26 60 C24.12876892 58.69075012 24.12876892 58.69075012 22.24975586 56.96411133 C21.5539743 56.32752594 20.85819275 55.69094055 20.1413269 55.0350647 C16.65211451 51.71900261 13.2152152 48.35786634 9.81640625 44.94921875 C8.70494484 43.83919243 8.70494484 43.83919243 7.57102966 42.70674133 C6.02114141 41.1575284 4.47249442 39.60707273 2.92504883 38.05541992 C0.54817751 35.67314495 -1.83404646 33.29631503 -4.21679688 30.91992188 C-5.72688365 29.4091751 -7.23666062 27.89811859 -8.74609375 26.38671875 C-9.45954453 25.67529221 -10.1729953 24.96386566 -10.9080658 24.23088074 C-11.5628743 23.57292007 -12.2176828 22.91495941 -12.89233398 22.23706055 C-13.46999008 21.65860886 -14.04764618 21.08015717 -14.64280701 20.48417664 C-17.64908667 17.19661911 -17.38857489 13.81563762 -17.3515625 9.546875 C-16.68753699 4.73637911 -13.90961405 2.51452149 -10.1875 -0.4375 C-6.57954151 -1.36526076 -3.47996621 -1.18977112 0 0 Z " fill="#ffffff" transform="translate(416,261)"/>
<path d="M0 0 C3.37422013 1.29225452 4.5771802 2.38184918 6.60180664 5.34179688 C8.64403222 10.68503208 8.44803819 15.73174168 8.43359375 21.40625 C8.4388356 22.60431274 8.44407745 23.80237549 8.44947815 25.03674316 C8.45589002 27.56501492 8.45457223 30.09331653 8.44604492 32.62158203 C8.43752965 36.486543 8.46631968 40.35002845 8.49804688 44.21484375 C8.49965889 46.67447872 8.49908135 49.13411631 8.49609375 51.59375 C8.51294472 53.32365173 8.51294472 53.32365173 8.53013611 55.08850098 C8.47576871 61.35531342 8.27078108 65.26795285 4 70 C1.02893058 72.40897521 -0.6745346 72.96512871 -4.5 73.375 C-9.45193063 72.844436 -12.82035365 70.81557562 -16 67 C-17.02529098 63.92412705 -17.15088781 61.74705555 -17.19287109 58.5222168 C-17.20893402 57.40062668 -17.22499695 56.27903656 -17.24154663 55.12345886 C-17.28602416 49.99907308 -17.32748992 44.87477509 -17.35009766 39.75024414 C-17.36343126 37.0467745 -17.39127545 34.34406072 -17.43212891 31.64086914 C-17.486865 27.74342112 -17.50876724 23.84699926 -17.5234375 19.94921875 C-17.54610687 18.74279221 -17.56877625 17.53636566 -17.59213257 16.29338074 C-17.5685684 6.9418602 -17.5685684 6.9418602 -14.59228516 3.25317383 C-9.97632079 -0.75895041 -5.9312588 -0.50518608 0 0 Z " fill="#ffffff" transform="translate(517,222)"/>
<path d="M0 0 C0.99 0.33 1.98 0.66 3 1 C-0.63 4.63 -4.26 8.26 -8 12 C-8.99 11.67 -9.98 11.34 -11 11 C-10.45730469 10.54109375 -9.91460938 10.0821875 -9.35546875 9.609375 C-8.64003906 8.99578125 -7.92460938 8.3821875 -7.1875 7.75 C-6.47980469 7.14671875 -5.77210938 6.5434375 -5.04296875 5.921875 C-3.08110329 4.07629602 -1.54330375 2.20054668 0 0 Z " fill="#ffffff" transform="translate(641,634)"/>
</svg>
